<svg version="1.0" xmlns="http://www.w3.org/2000/svg" width="693.333" height="693.333" viewBox="0 0 520 520"><script id="__gaOptOutExtension"/><path d="M67 67.7c-10.2 1.6-22.3 8.5-29.8 16.9-6.2 7-9.5 13.4-12.1 23.9-.7 2.6-1.1 61.5-1.1 171.4v167.3l35.1-34.8c19.3-19.2 35.3-35.1 35.5-35.4.3-.3 80.1-.5 177.2-.6 163.5 0 177.2-.2 183.2-1.8 16.6-4.4 30-16.6 36.3-33.1l2.2-6 .2-112c.3-106.8.2-112.3-1.6-118.1-5.6-18.6-19.5-32.1-37.8-36.8-5.4-1.4-26.3-1.6-195.4-1.5-104.2.1-190.5.4-191.9.6zm60.6 72.9c1.2.9 3.1 2.7 4.1 4.2 1.7 2.5 1.8 7.1 2 79.3.1 70 0 77-1.5 80-2.4 4.6-6.4 7.2-11.6 7.5-5.3.3-10.7-2.9-12.6-7.6-1-2.5-1.3-19-1.3-79.4 0-72.7.1-76.4 1.9-79.4 3.8-6.5 12.8-8.6 19-4.6zm64 3c10 4.8 10.4 21 .6 26.7-6.8 4-17.3 1.6-21.2-4.8-2.3-3.7-2.8-10.4-1.2-14.7 1.2-3 4.7-6.6 7.7-7.8 3.3-1.4 10.5-1.1 14.1.6zm73.3 25.5c1.8 1.7 2.1 3.1 2.1 10.9v9h12.5c13.7 0 16.9.9 19.9 5.5 4.2 6.3.6 16.6-6.4 18.4-1.9.5-8.1.9-13.7.9-5.5 0-10.5.2-11.1.6-.5.3-.9 14.5-.8 35.1.1 33.5.2 34.5 2.2 36.5 2.5 2.6 9.6 3.2 17 1.4 6.4-1.5 9.4-.9 13.3 2.4 2.4 2 3.3 3.7 3.6 6.8.9 10.3-10.2 16.7-28.2 16.5-16.2-.2-27.4-6.2-32.4-17.3-2.4-5.2-2.4-5.7-2.7-43.3-.2-20.9-.5-38.1-.7-38.3-.2-.3-3.7-.4-7.6-.5-6.4 0-7.6-.3-9.7-2.4-2-2-2.3-3.1-1.9-6.1.5-3 3.3-6.2 17.4-20.1 9.2-9.1 17.8-17 19.1-17.7 2.8-1.4 5.3-.9 8.1 1.7zm124 19.3c9.6 2.3 19.3 7.9 26.4 15.2 14.1 14.6 21.1 45.7 12 53.5-3.6 3.2-8 3.5-44.6 3.5l-36.8-.1.6 3.5c1.6 8.6 9.6 17.4 19.1 21 10.9 4.1 28.5 3 41.4-2.7 6.6-2.9 8.7-3.3 12.1-2.1 7.4 2.5 10.8 11.7 6.6 17.9-3.9 5.9-19.9 13.1-32.2 14.6-19.7 2.4-37.1-.5-50-8.2-12.2-7.4-21.6-21.4-24.9-37.5-1.9-9.3-1.5-28.8.8-37.5 3.9-14.7 14.1-28.7 25.7-35 9.7-5.3 19-7.4 30.9-7.1 5.8.2 11.6.6 12.9 1zm-197.8 1.9c7 4.7 6.9 3.4 6.9 59.4 0 57.6.1 56.6-7.6 60.3-5 2.5-9.5 2.3-13.8-.5-6-3.9-5.9-3.1-5.9-59.6 0-49.3.1-51.9 1.9-55.1 3.8-6.5 12.4-8.6 18.5-4.5z"/><path d="M365.3 213c-8.9 2.9-14.8 8.6-17.8 17.1-2.9 8-5 7.5 27.6 7.4h29.1l-.5-3.2c-2.7-16.5-21.4-26.8-38.4-21.3z"/></svg>