<svg width="71" height="15" fill="none" xmlns="http://www.w3.org/2000/svg"><g clip-path="url(#clip0_31_156)" fill="#372213"><path d="M7.028 9h-.031c-.348 1.51-1.918 2.396-3.393 2.396C1.19 11.396 0 9.5 0 7.312c0-2.291 1.275-4.187 3.71-4.187 1.643 0 2.939 1.083 3.276 2.48h.032V3.322h.337v8.26C7.355 13.906 6.006 15 3.762 15c-1.75 0-3.246-.781-3.298-2.688H.8c.063 1.698 1.38 2.355 2.94 2.355 2.086 0 3.277-.98 3.277-3.094V9h.01zM3.71 3.458C1.475 3.458.327 5.24.327 7.312c0 2.115 1.138 3.76 3.245 3.76 2.223 0 3.435-1.697 3.435-3.76.021-1.968-1.127-3.854-3.298-3.854zm8.492-.333c2.519 0 3.878 2.146 3.878 4.469 0 2.343-1.36 4.468-3.899 4.468-2.518 0-3.888-2.124-3.888-4.468.01-2.323 1.37-4.469 3.91-4.469zm0 8.604c2.297 0 3.54-1.979 3.54-4.135 0-2.125-1.243-4.136-3.54-4.136-2.34 0-3.561 2.01-3.561 4.136 0 2.156 1.222 4.135 3.561 4.135zm8.304-8.604c2.518 0 3.877 2.146 3.877 4.469 0 2.343-1.36 4.468-3.899 4.468-2.518 0-3.877-2.124-3.877-4.468 0-2.323 1.359-4.469 3.899-4.469zm0 8.604c2.307 0 3.54-1.979 3.54-4.135 0-2.125-1.243-4.136-3.54-4.136-2.34 0-3.562 2.01-3.562 4.136-.01 2.156 1.222 4.135 3.562 4.135zM32.075 0h.338v11.865h-.338V9.469h-.031c-.432 1.49-1.697 2.594-3.456 2.594-2.287 0-3.678-1.876-3.678-4.448 0-2.396 1.296-4.49 3.677-4.49 1.834 0 3.056 1.052 3.457 2.594h.031V0zm-3.488 3.458c-2.37 0-3.34 2.177-3.34 4.157 0 2.187 1.107 4.114 3.34 4.114 2.224 0 3.499-1.906 3.499-4.114-.01-2.646-1.402-4.157-3.498-4.157zm5.459-.166h.97v2.01h.03c.538-1.375 1.718-2.198 3.278-2.125V4.22C36.406 4.115 35.1 5.51 35.1 7.292v4.573h-1.065V3.292h.01zm5.194 4.562c.011 1.531.823 3.375 2.856 3.375 1.55 0 2.382-.896 2.719-2.187h1.064c-.453 1.948-1.601 3.073-3.783 3.073-2.75 0-3.909-2.094-3.909-4.532 0-2.26 1.16-4.53 3.91-4.53 2.792 0 3.898 2.405 3.814 4.812h-6.67v-.01zm5.607-.875c-.053-1.573-1.044-3.062-2.761-3.062-1.718 0-2.677 1.5-2.845 3.062h5.606zm1.97-1.062c.095-2.01 1.528-2.875 3.509-2.875 1.528 0 3.193.468 3.193 2.76v4.552c0 .396.2.636.621.636.116 0 .253-.032.337-.063v.875a2.82 2.82 0 01-.695.063c-1.075 0-1.243-.594-1.243-1.5h-.032c-.737 1.114-1.496 1.74-3.161 1.74-1.591 0-2.908-.782-2.908-2.511 0-2.406 2.37-2.49 4.657-2.76.875-.105 1.36-.22 1.36-1.167 0-1.417-1.023-1.76-2.277-1.76-1.306 0-2.286.603-2.318 2h-1.043v.01zm5.648 1.26h-.032c-.137.25-.61.333-.895.386-1.802.312-4.036.302-4.036 1.979 0 1.052.938 1.698 1.928 1.698 1.612 0 3.045-1.01 3.024-2.688V7.177h.01zm10.39 4.688h-.97v-1.636h-.031c-.453 1.115-1.834 1.875-3.088 1.875-2.645 0-3.899-2.104-3.899-4.531 0-2.427 1.254-4.531 3.9-4.531 1.295 0 2.55.646 3.002 1.875h.032V0h1.054v11.865zm-4.1-.636c2.256 0 3.046-1.875 3.046-3.656 0-1.781-.79-3.656-3.045-3.656-2.013 0-2.845 1.875-2.845 3.656 0 1.781.822 3.656 2.845 3.656zM69.64 5.792c-.052-1.292-1.053-1.875-2.265-1.875-.938 0-2.044.364-2.044 1.479 0 .927 1.075 1.26 1.802 1.448l1.412.312c1.212.188 2.466.886 2.466 2.375 0 1.865-1.865 2.573-3.478 2.573-2.012 0-3.393-.927-3.561-3.02h1.053c.085 1.406 1.149 2.145 2.561 2.145.99 0 2.37-.427 2.37-1.625 0-1-.937-1.323-1.896-1.562L66.7 7.74c-1.38-.365-2.423-.834-2.423-2.292 0-1.74 1.728-2.406 3.256-2.406 1.728 0 3.109.896 3.172 2.76h-1.064v-.01z"/></g><defs><clipPath id="clip0_31_156"><path fill="#fff" d="M0 0h71v15H0z"/></clipPath></defs></svg>