<svg width="134" height="37" fill="none" xmlns="http://www.w3.org/2000/svg"><path d="M12.015 26.308c0 .967-.235 1.798-.706 2.49-.47.685-1.168 1.208-2.092 1.567-.916.35-2.033.526-3.35.526-1.258 0-2.337-.192-3.235-.577-.899-.386-1.562-.865-1.99-1.438C.214 28.294 0 27.712 0 27.13c0-.385.137-.715.41-.988.275-.274.621-.411 1.04-.411.369 0 .651.09.848.27.197.179.385.431.565.757.36.624.787 1.09 1.283 1.399.505.308 1.19.462 2.054.462.702 0 1.275-.154 1.72-.462.454-.317.68-.676.68-1.078 0-.617-.234-1.066-.705-1.348-.462-.283-1.228-.552-2.298-.809-1.207-.3-2.19-.612-2.953-.937-.753-.334-1.356-.77-1.81-1.31-.453-.539-.68-1.202-.68-1.99 0-.701.21-1.364.63-1.989.418-.625 1.035-1.121 1.848-1.49.821-.376 1.81-.564 2.965-.564.907 0 1.72.094 2.439.282.727.189 1.33.441 1.81.758.488.317.856.667 1.104 1.053.257.385.385.761.385 1.13a1.3 1.3 0 01-.41.988c-.266.256-.647.385-1.143.385-.36 0-.668-.103-.924-.308-.249-.206-.535-.514-.86-.925a3.167 3.167 0 00-.938-.821c-.359-.206-.847-.308-1.463-.308-.633 0-1.16.137-1.579.41-.42.266-.629.6-.629 1.002 0 .368.154.672.462.911.308.231.723.424 1.245.578.522.154 1.241.342 2.157.565 1.087.265 1.973.582 2.657.95.693.368 1.216.804 1.566 1.309.36.496.54 1.066.54 1.707zm6.201-7.702v.424c.659-.813 1.343-1.408 2.054-1.785.71-.385 1.515-.577 2.413-.577a5.59 5.59 0 012.978.834c.907.556 1.622 1.37 2.144 2.44.53 1.069.796 2.335.796 3.799 0 1.078-.154 2.071-.462 2.978-.3.899-.715 1.656-1.245 2.272a5.553 5.553 0 01-1.887 1.412 5.571 5.571 0 01-2.324.488c-1.001 0-1.844-.2-2.529-.603-.676-.402-1.322-.993-1.938-1.772v5.264c0 1.54-.56 2.31-1.682 2.31-.659 0-1.095-.2-1.31-.603-.213-.394-.32-.971-.32-1.733V18.632c0-.668.145-1.164.436-1.49.291-.333.69-.5 1.194-.5.497 0 .899.171 1.207.514.317.333.475.817.475 1.45zm6.868 5.096c0-.924-.142-1.715-.424-2.374-.282-.668-.676-1.177-1.18-1.528a2.758 2.758 0 00-1.657-.54c-.967 0-1.784.382-2.452 1.143-.659.762-.988 1.883-.988 3.364 0 1.395.33 2.482.988 3.26.66.77 1.477 1.156 2.452 1.156a2.84 2.84 0 001.617-.501c.497-.342.895-.852 1.194-1.528.3-.676.45-1.493.45-2.452zm19.448.065c0 1.044-.163 2.006-.488 2.888a6.377 6.377 0 01-1.412 2.272 6.308 6.308 0 01-2.208 1.464c-.856.333-1.819.5-2.888.5-1.062 0-2.016-.17-2.863-.513a6.469 6.469 0 01-2.208-1.464 6.559 6.559 0 01-1.412-2.259c-.317-.873-.475-1.836-.475-2.888 0-1.062.163-2.033.488-2.914a6.34 6.34 0 011.399-2.26 6.098 6.098 0 012.208-1.438c.864-.342 1.819-.513 2.863-.513 1.06 0 2.024.171 2.888.514a6.27 6.27 0 012.22 1.463 6.254 6.254 0 011.4 2.26c.325.872.488 1.835.488 2.888zm-3.517 0c0-1.43-.317-2.542-.95-3.338-.625-.796-1.468-1.194-2.53-1.194-.684 0-1.287.18-1.81.54-.521.35-.924.872-1.206 1.565-.282.694-.424 1.502-.424 2.427 0 .915.137 1.716.411 2.4.282.685.68 1.211 1.194 1.58.522.359 1.134.538 1.836.538 1.06 0 1.904-.398 2.529-1.194.633-.804.95-1.912.95-3.324zm19.409 0c0 1.044-.162 2.006-.488 2.888a6.377 6.377 0 01-1.412 2.272 6.307 6.307 0 01-2.208 1.464c-.855.333-1.818.5-2.888.5-1.061 0-2.015-.17-2.863-.513a6.467 6.467 0 01-2.208-1.464 6.556 6.556 0 01-1.412-2.259c-.316-.873-.475-1.836-.475-2.888 0-1.062.163-2.033.488-2.914a6.34 6.34 0 011.4-2.26 6.098 6.098 0 012.207-1.438c.865-.342 1.819-.513 2.863-.513 1.061 0 2.024.171 2.888.514.865.342 1.605.83 2.221 1.463a6.251 6.251 0 011.4 2.26c.325.872.487 1.835.487 2.888zm-3.517 0c0-1.43-.317-2.542-.95-3.338-.625-.796-1.468-1.194-2.529-1.194-.685 0-1.288.18-1.81.54-.522.35-.924.872-1.207 1.565-.282.694-.423 1.502-.423 2.427 0 .915.137 1.716.41 2.4.283.685.68 1.211 1.194 1.58.522.359 1.134.538 1.836.538 1.061 0 1.904-.398 2.529-1.194.633-.804.95-1.912.95-3.324zm15.019 5.52l-3.094-5.084-1.9 1.797v2.786c0 .676-.18 1.198-.538 1.566-.351.36-.758.54-1.22.54-.54 0-.963-.18-1.27-.54-.309-.36-.463-.89-.463-1.592V13.818c0-.779.15-1.37.45-1.772.299-.41.727-.616 1.283-.616.54 0 .967.184 1.284.552.316.368.475.912.475 1.63v8.499l3.94-4.134c.489-.513.86-.864 1.117-1.053.257-.188.57-.282.938-.282.436 0 .8.141 1.09.424.292.274.437.62.437 1.04 0 .513-.475 1.198-1.425 2.053l-1.861 1.708 3.594 5.648c.266.42.454.74.565.963.12.214.18.42.18.616 0 .556-.154.997-.462 1.322-.3.317-.698.475-1.194.475-.428 0-.758-.115-.989-.346-.23-.231-.543-.65-.937-1.258zm8.909 2.041l.321-.783-4.313-10.86c-.265-.625-.398-1.079-.398-1.361 0-.3.077-.578.231-.835a1.744 1.744 0 011.476-.847c.505 0 .886.163 1.143.488.257.317.483.774.68 1.373l2.966 8.627 2.81-8.023c.223-.65.424-1.16.604-1.528.18-.368.368-.616.565-.744.205-.129.492-.193.86-.193.265 0 .518.073.757.218.249.137.437.326.565.565.137.24.206.492.206.758-.035.162-.09.393-.167.693-.077.3-.171.603-.283.911l-4.57 11.964c-.393 1.053-.778 1.879-1.155 2.478a3.744 3.744 0 01-1.502 1.373c-.616.326-1.45.488-2.503.488-1.027 0-1.797-.111-2.31-.334-.514-.222-.771-.629-.771-1.219 0-.402.12-.715.36-.937.248-.214.611-.321 1.09-.321.189 0 .373.026.553.077.222.051.415.077.577.077.403 0 .72-.06.95-.18.231-.12.437-.33.616-.629.189-.29.403-.723.642-1.296z" fill="#000"/><path d="M129.657 0H99.742c-2.306 0-4.217 1.893-4.217 4.176v26.532l5.82-5.707h28.34c2.306 0 4.218-1.893 4.218-4.176V4.176A4.234 4.234 0 00129.657 0z" fill="#09C269"/><path d="M124.146 9.688c3.206 0 4.668 2.534 4.668 4.872 0 .64-.478 1.086-1.125 1.086h-5.904c.281 1.42 1.293 2.172 2.896 2.172 1.152 0 1.799-.25 2.361-.53a.835.835 0 01.45-.11c.563 0 1.012.445 1.012 1.002 0 .362-.225.696-.618.919-.787.445-1.631.835-3.374.835-3.149 0-5.061-1.921-5.061-5.123 0-3.758 2.531-5.123 4.695-5.123zm-9.39-1.642c.365 0 .618.278.618.64v1.17h1.8a1.003 1.003 0 110 2.004h-1.772v5.234c0 .752.394.807.928.807.31 0 .478-.055.647-.083.141-.028.281-.084.45-.084.45 0 .956.362.956.947a1.01 1.01 0 01-.591.863 3.79 3.79 0 01-1.659.362c-1.939 0-2.98-.919-2.98-2.673V11.86h-1.012a.603.603 0 01-.618-.613.68.68 0 01.253-.528l2.474-2.423c.056-.055.253-.25.506-.25zm-11.387-2.283c.619 0 1.125.501 1.125 1.113V18.71c0 .612-.506 1.085-1.125 1.085a1.093 1.093 0 01-1.097-1.085V6.876c0-.612.478-1.113 1.097-1.113zm5.229 4.009c.619 0 1.125.501 1.125 1.114v7.823c0 .612-.506 1.085-1.125 1.085a1.092 1.092 0 01-1.096-1.085v-7.823c0-.613.478-1.114 1.096-1.114zm15.577 1.893c-1.069 0-2.193.64-2.39 2.116h4.808c-.225-1.476-1.35-2.116-2.418-2.116zm-15.52-5.624c.674 0 1.209.53 1.209 1.197v.084c0 .668-.535 1.197-1.209 1.197h-.113a1.194 1.194 0 01-1.209-1.197v-.084c0-.668.534-1.197 1.209-1.197h.113z" fill="#fff"/></svg>