<svg width="16" height="16" viewBox="0 0 16 16" fill="none" xmlns="http://www.w3.org/2000/svg">
<path d="M4.6665 12H6.99984H9.33317" stroke="#47464F" stroke-width="1.2" stroke-linecap="round" stroke-linejoin="round"/>
<path d="M4.6665 9.33594H4.99984H5.33317" stroke="#47464F" stroke-width="1.2" stroke-linecap="round" stroke-linejoin="round"/>
<path d="M4.6665 6.66406H5.6665H6.6665" stroke="#47464F" stroke-width="1.2" stroke-linecap="round" stroke-linejoin="round"/>
<path d="M4.6665 1.33594H10.9998L13.9998 4.33594V12.6693" stroke="#47464F" stroke-width="1.2" stroke-linecap="round" stroke-linejoin="round"/>
<path d="M2 13.6693V4.33594C2 3.78365 2.44771 3.33594 3 3.33594H9.501C9.60707 3.33594 9.7088 3.37808 9.7838 3.4531L11.8829 5.55211C11.9579 5.62713 12 5.72887 12 5.83496V13.6693C12 14.2215 11.5523 14.6693 11 14.6693H3C2.44771 14.6693 2 14.2215 2 13.6693Z" stroke="#47464F" stroke-width="1.2" stroke-linecap="round" stroke-linejoin="round"/>
<path d="M9.3335 3.33594V5.6026C9.3335 5.82352 9.51256 6.0026 9.7335 6.0026H12.0002" stroke="#47464F" stroke-width="1.2" stroke-linecap="round" stroke-linejoin="round"/>
</svg>
