<svg width="16" height="16" viewBox="0 0 16 16" fill="none" xmlns="http://www.w3.org/2000/svg">
<path d="M2.6665 9.33594V12.2693C2.6665 12.4902 2.84559 12.6693 3.0665 12.6693H6.6665" stroke="#47464F" stroke-width="1.2" stroke-linecap="round" stroke-linejoin="round"/>
<path d="M12.6668 9.33594V12.2693C12.6668 12.4902 12.4878 12.6693 12.2668 12.6693H9.3335" stroke="#47464F" stroke-width="1.2" stroke-linecap="round" stroke-linejoin="round"/>
<path d="M9.3335 3.33594H12.2668C12.4878 3.33594 12.6668 3.51502 12.6668 3.73594V6.66927" stroke="#47464F" stroke-width="1.2" stroke-linecap="round" stroke-linejoin="round"/>
<path d="M2.6665 6.66927V3.73594C2.6665 3.51502 2.84559 3.33594 3.0665 3.33594H6.6665" stroke="#47464F" stroke-width="1.2" stroke-linecap="round" stroke-linejoin="round"/>
<path d="M9.33317 12.6641V13.3307C9.33317 14.0671 8.73624 14.6641 7.99984 14.6641C7.26344 14.6641 6.6665 14.0671 6.6665 13.3307V12.6641" stroke="#47464F" stroke-width="1.2" stroke-linecap="round" stroke-linejoin="round"/>
<path d="M2.6665 6.66406H3.33317C4.06955 6.66406 4.6665 7.261 4.6665 7.9974C4.6665 8.7338 4.06955 9.33073 3.33317 9.33073H2.6665" stroke="#47464F" stroke-width="1.2" stroke-linecap="round" stroke-linejoin="round"/>
<path d="M12.6665 6.66406H13.3332C14.0696 6.66406 14.6665 7.261 14.6665 7.9974C14.6665 8.7338 14.0696 9.33073 13.3332 9.33073H12.6665" stroke="#47464F" stroke-width="1.2" stroke-linecap="round" stroke-linejoin="round"/>
<path d="M9.33317 3.33594V2.66927C9.33317 1.93289 8.73624 1.33594 7.99984 1.33594C7.26344 1.33594 6.6665 1.93289 6.6665 2.66927V3.33594" stroke="#47464F" stroke-width="1.2" stroke-linecap="round" stroke-linejoin="round"/>
</svg>
