<svg width="71" height="15" viewBox="0 0 71 15" fill="none" xmlns="http://www.w3.org/2000/svg">
<g clip-path="url(#clip0_31_156)">
<path d="M7.02835 9H6.99674C6.64901 10.5104 5.07896 11.3958 3.60374 11.3958C1.19071 11.3958 0 9.5 0 7.3125C0 5.02083 1.27501 3.125 3.70911 3.125C5.35292 3.125 6.64901 4.20833 6.9862 5.60417H7.01781V3.32292H7.355V11.5833C7.355 13.9062 6.00623 15 3.7618 15C2.01262 15 0.516325 14.2187 0.463639 12.3125H0.800831C0.864055 14.0104 2.18121 14.6667 3.74072 14.6667C5.8271 14.6667 7.01781 13.6875 7.01781 11.5729V9H7.02835ZM3.70911 3.45833C1.47522 3.45833 0.326655 5.23958 0.326655 7.3125C0.326655 9.42708 1.46468 11.0729 3.57213 11.0729C5.79549 11.0729 7.00727 9.375 7.00727 7.3125C7.02835 5.34375 5.87979 3.45833 3.70911 3.45833Z" fill="#372213"/>
<path d="M12.2022 3.125C14.7206 3.125 16.0799 5.27083 16.0799 7.59375C16.0799 9.9375 14.7206 12.0625 12.1811 12.0625C9.66269 12.0625 8.29285 9.9375 8.29285 7.59375C8.30338 5.27083 9.66269 3.125 12.2022 3.125ZM12.2022 11.7292C14.4993 11.7292 15.7427 9.75 15.7427 7.59375C15.7427 5.46875 14.4993 3.45833 12.2022 3.45833C9.8629 3.45833 8.64058 5.46875 8.64058 7.59375C8.64058 9.75 9.8629 11.7292 12.2022 11.7292Z" fill="#372213"/>
<path d="M20.5055 3.125C23.0239 3.125 24.3832 5.27083 24.3832 7.59375C24.3832 9.9375 23.0239 12.0625 20.4844 12.0625C17.966 12.0625 16.6067 9.9375 16.6067 7.59375C16.6067 5.27083 17.966 3.125 20.5055 3.125ZM20.5055 11.7292C22.8131 11.7292 24.046 9.75 24.046 7.59375C24.046 5.46875 22.8026 3.45833 20.5055 3.45833C18.1662 3.45833 16.9439 5.46875 16.9439 7.59375C16.9333 9.75 18.1662 11.7292 20.5055 11.7292Z" fill="#372213"/>
<path d="M32.0754 0H32.4126V11.8646H32.0754V9.46875H32.0438C31.6117 10.9583 30.3473 12.0625 28.5875 12.0625C26.301 12.0625 24.91 10.1875 24.91 7.61458C24.91 5.21875 26.2061 3.125 28.5875 3.125C30.421 3.125 31.6433 4.17708 32.0438 5.71875H32.0754V0ZM28.5875 3.45833C26.2167 3.45833 25.2472 5.63542 25.2472 7.61458C25.2472 9.80208 26.3536 11.7292 28.5875 11.7292C30.8109 11.7292 32.0859 9.82292 32.0859 7.61458C32.0754 4.96875 30.6844 3.45833 28.5875 3.45833Z" fill="#372213"/>
<path d="M34.0458 3.29167H35.0152V5.30208H35.0469C35.5843 3.92708 36.7644 3.10417 38.3239 3.17708V4.21875C36.4062 4.11458 35.0995 5.51042 35.0995 7.29167V11.8646H34.0353V3.29167H34.0458Z" fill="#372213"/>
<path d="M39.2407 7.85417C39.2513 9.38542 40.0626 11.2292 42.0963 11.2292C43.6453 11.2292 44.4778 10.3333 44.8149 9.04167H45.8792C45.4261 10.9896 44.2775 12.1146 42.0963 12.1146C39.3461 12.1146 38.187 10.0208 38.187 7.58333C38.187 5.32292 39.3461 3.05208 42.0963 3.05208C44.8887 3.05208 45.9951 5.45833 45.9108 7.86458H39.2407V7.85417ZM44.8466 6.97917C44.7939 5.40625 43.8034 3.91667 42.0858 3.91667C40.3682 3.91667 39.4093 5.41667 39.2407 6.97917H44.8466Z" fill="#372213"/>
<path d="M46.817 5.91667C46.9118 3.90625 48.3449 3.04167 50.3259 3.04167C51.8538 3.04167 53.5187 3.51042 53.5187 5.80208V10.3542C53.5187 10.75 53.7189 10.9896 54.1404 10.9896C54.2563 10.9896 54.3932 10.9583 54.4775 10.9271V11.8021C54.2457 11.8542 54.0771 11.8646 53.7821 11.8646C52.7073 11.8646 52.5387 11.2708 52.5387 10.3646H52.5071C51.7695 11.4792 51.0108 12.1042 49.3459 12.1042C47.7548 12.1042 46.4376 11.3229 46.4376 9.59375C46.4376 7.1875 48.8085 7.10417 51.0951 6.83333C51.9697 6.72917 52.4544 6.61458 52.4544 5.66667C52.4544 4.25 51.4323 3.90625 50.1783 3.90625C48.8717 3.90625 47.8918 4.51042 47.8602 5.90625H46.817V5.91667ZM52.4649 7.17708H52.4333C52.2963 7.42708 51.8222 7.51042 51.5377 7.5625C49.7358 7.875 47.5019 7.86458 47.5019 9.54167C47.5019 10.5937 48.4397 11.2396 49.4302 11.2396C51.0424 11.2396 52.4755 10.2292 52.4544 8.55208V7.17708H52.4649Z" fill="#372213"/>
<path d="M62.8547 11.8646H61.8852V10.2292H61.8536C61.4005 11.3438 60.0201 12.1042 58.7662 12.1042C56.1214 12.1042 54.8674 10 54.8674 7.57292C54.8674 5.14583 56.1214 3.04167 58.7662 3.04167C60.0623 3.04167 61.3162 3.6875 61.7693 4.91667H61.8009V0H62.8547V11.8646ZM58.7557 11.2292C61.0106 11.2292 61.8009 9.35417 61.8009 7.57292C61.8009 5.79167 61.0106 3.91667 58.7557 3.91667C56.7431 3.91667 55.9106 5.79167 55.9106 7.57292C55.9106 9.35417 56.7325 11.2292 58.7557 11.2292Z" fill="#372213"/>
<path d="M69.6407 5.79167C69.588 4.5 68.587 3.91667 67.3752 3.91667C66.4374 3.91667 65.331 4.28125 65.331 5.39583C65.331 6.32292 66.4058 6.65625 67.1329 6.84375L68.5448 7.15625C69.7566 7.34375 71.0106 8.04167 71.0106 9.53125C71.0106 11.3958 69.1455 12.1042 67.5333 12.1042C65.5207 12.1042 64.1403 11.1771 63.9717 9.08333H65.0254C65.1097 10.4896 66.174 11.2292 67.586 11.2292C68.5765 11.2292 69.9568 10.8021 69.9568 9.60417C69.9568 8.60417 69.019 8.28125 68.0601 8.04167L66.7008 7.73958C65.3205 7.375 64.2773 6.90625 64.2773 5.44792C64.2773 3.70833 66.0054 3.04167 67.5333 3.04167C69.2614 3.04167 70.6418 3.9375 70.705 5.80208H69.6407V5.79167Z" fill="#372213"/>
</g>
<defs>
<clipPath id="clip0_31_156">
<rect width="71" height="15" fill="white"/>
</clipPath>
</defs>
</svg>
