<svg width="134" height="37" viewBox="0 0 134 37" fill="none" xmlns="http://www.w3.org/2000/svg">
<path d="M12.0155 26.3084C12.0155 27.2754 11.7802 28.1056 11.3095 28.7988C10.8388 29.4834 10.1413 30.0055 9.21704 30.3649C8.30133 30.7158 7.1845 30.8912 5.86656 30.8912C4.60852 30.8912 3.5302 30.6987 2.63161 30.3136C1.73301 29.9284 1.06976 29.4492 0.641855 28.8758C0.213952 28.2938 0 27.7119 0 27.13C0 26.7448 0.136929 26.4154 0.410787 26.1415C0.684645 25.8676 1.03125 25.7307 1.45059 25.7307C1.81859 25.7307 2.10101 25.8206 2.29784 26.0003C2.49468 26.18 2.68295 26.4325 2.86267 26.7577C3.22211 27.3824 3.65002 27.8488 4.14638 28.1569C4.65131 28.465 5.33596 28.6191 6.20032 28.6191C6.90208 28.6191 7.47547 28.465 7.92049 28.1569C8.37407 27.8403 8.60086 27.4808 8.60086 27.0786C8.60086 26.4624 8.36551 26.0131 7.89482 25.7307C7.43268 25.4483 6.66674 25.1787 5.59698 24.922C4.39029 24.6224 3.40611 24.3101 2.64444 23.9849C1.89133 23.6511 1.28799 23.2146 0.834412 22.6755C0.380834 22.1363 0.154045 21.4731 0.154045 20.6857C0.154045 19.984 0.363718 19.3207 0.783063 18.696C1.20241 18.0712 1.81859 17.5749 2.63161 17.2069C3.45318 16.8303 4.44164 16.642 5.59698 16.642C6.50413 16.642 7.31715 16.7362 8.03603 16.9245C8.76346 17.1127 9.36681 17.3652 9.84606 17.6818C10.3339 17.9985 10.7019 18.3494 10.95 18.7345C11.2068 19.1196 11.3352 19.4962 11.3352 19.8642C11.3352 20.2664 11.1982 20.5959 10.9244 20.8526C10.6591 21.1094 10.2782 21.2377 9.78187 21.2377C9.42243 21.2377 9.11434 21.135 8.8576 20.9296C8.60942 20.7242 8.32272 20.4161 7.99751 20.0054C7.73221 19.663 7.41985 19.3892 7.06041 19.1838C6.70097 18.9784 6.21316 18.8757 5.59698 18.8757C4.96368 18.8757 4.43736 19.0126 4.01801 19.2865C3.59867 19.5518 3.38899 19.8855 3.38899 20.2878C3.38899 20.6558 3.54304 20.9596 3.85113 21.1992C4.15922 21.4303 4.57429 21.6228 5.09633 21.7769C5.61837 21.9309 6.33725 22.1192 7.25296 22.3417C8.33984 22.607 9.2256 22.9237 9.91024 23.2917C10.6034 23.6597 11.1255 24.0961 11.4764 24.601C11.8358 25.0974 12.0155 25.6665 12.0155 26.3084Z" fill="black"/>
<path d="M18.2158 18.6061V19.0297C18.8748 18.2167 19.5595 17.6219 20.2698 17.2454C20.9801 16.8603 21.7846 16.6677 22.6832 16.6677C23.7615 16.6677 24.7542 16.9459 25.6614 17.5021C26.5685 18.0584 27.2831 18.8714 27.8052 19.9412C28.3358 21.0109 28.6011 22.2775 28.6011 23.741C28.6011 24.8193 28.447 25.812 28.1389 26.7192C27.8394 27.6178 27.4243 28.3752 26.8937 28.9913C26.3631 29.599 25.7341 30.0697 25.0067 30.4034C24.2878 30.7286 23.5133 30.8912 22.6832 30.8912C21.6819 30.8912 20.8389 30.6901 20.1542 30.2879C19.4782 29.8857 18.832 29.2951 18.2158 28.5164V33.7796C18.2158 35.32 17.6553 36.0903 16.5342 36.0903C15.8752 36.0903 15.4388 35.8891 15.2248 35.4869C15.0109 35.0932 14.9039 34.5156 14.9039 33.7539V18.6318C14.9039 17.9643 15.0494 17.4679 15.3403 17.1427C15.6313 16.8089 16.0293 16.642 16.5342 16.642C17.0306 16.642 17.4328 16.8132 17.7409 17.1555C18.0575 17.4893 18.2158 17.9728 18.2158 18.6061ZM25.0837 23.7024C25.0837 22.7782 24.9425 21.9866 24.6601 21.3276C24.3777 20.6601 23.984 20.1508 23.4791 19.8C22.9827 19.4405 22.4307 19.2608 21.8231 19.2608C20.856 19.2608 20.0387 19.6416 19.3712 20.4033C18.7122 21.165 18.3827 22.2861 18.3827 23.7666C18.3827 25.1616 18.7122 26.2485 19.3712 27.0273C20.0302 27.7975 20.8475 28.1826 21.8231 28.1826C22.405 28.1826 22.9442 28.0157 23.4405 27.6819C23.9369 27.3396 24.3349 26.8304 24.6344 26.1543C24.9339 25.4782 25.0837 24.661 25.0837 23.7024Z" fill="black"/>
<path d="M44.5319 23.7666C44.5319 24.8107 44.3693 25.7735 44.0441 26.655C43.7189 27.5365 43.2482 28.2938 42.632 28.9271C42.0158 29.5604 41.2798 30.0483 40.424 30.3906C39.5682 30.7243 38.6054 30.8912 37.5357 30.8912C36.4745 30.8912 35.5203 30.7201 34.673 30.3777C33.8258 30.0354 33.0898 29.5476 32.465 28.9143C31.8489 28.2725 31.3782 27.5193 31.0529 26.655C30.7363 25.7821 30.578 24.8193 30.578 23.7666C30.578 22.7054 30.7406 21.7341 31.0658 20.8526C31.391 19.9711 31.8574 19.218 32.465 18.5933C33.0727 17.9685 33.8086 17.4893 34.673 17.1555C35.5374 16.8132 36.4916 16.642 37.5357 16.642C38.5969 16.642 39.5597 16.8132 40.424 17.1555C41.2884 17.4978 42.0287 17.9857 42.6449 18.619C43.261 19.2523 43.7274 20.0054 44.0441 20.8783C44.3693 21.7512 44.5319 22.714 44.5319 23.7666ZM41.0145 23.7666C41.0145 22.3374 40.6979 21.2249 40.0646 20.429C39.4399 19.6331 38.5969 19.2351 37.5357 19.2351C36.851 19.2351 36.2477 19.4149 35.7257 19.7743C35.2036 20.1252 34.8014 20.6472 34.519 21.3404C34.2365 22.0336 34.0953 22.8424 34.0953 23.7666C34.0953 24.6823 34.2323 25.4825 34.5061 26.1672C34.7885 26.8518 35.1865 27.3781 35.7 27.7461C36.222 28.1056 36.8339 28.2853 37.5357 28.2853C38.5969 28.2853 39.4399 27.8873 40.0646 27.0914C40.6979 26.287 41.0145 25.1787 41.0145 23.7666Z" fill="black"/>
<path d="M60.4242 23.7666C60.4242 24.8107 60.2616 25.7735 59.9364 26.655C59.6112 27.5365 59.1405 28.2938 58.5243 28.9271C57.9082 29.5604 57.1722 30.0483 56.3164 30.3906C55.4606 30.7243 54.4978 30.8912 53.428 30.8912C52.3668 30.8912 51.4126 30.7201 50.5653 30.3777C49.7181 30.0354 48.9821 29.5476 48.3574 28.9143C47.7412 28.2725 47.2705 27.5193 46.9453 26.655C46.6286 25.7821 46.4703 24.8193 46.4703 23.7666C46.4703 22.7054 46.6329 21.7341 46.9581 20.8526C47.2833 19.9711 47.7497 19.218 48.3574 18.5933C48.965 17.9685 49.701 17.4893 50.5653 17.1555C51.4297 16.8132 52.3839 16.642 53.428 16.642C54.4892 16.642 55.452 16.8132 56.3164 17.1555C57.1807 17.4978 57.921 17.9857 58.5372 18.619C59.1534 19.2523 59.6198 20.0054 59.9364 20.8783C60.2616 21.7512 60.4242 22.714 60.4242 23.7666ZM56.9069 23.7666C56.9069 22.3374 56.5902 21.2249 55.9569 20.429C55.3322 19.6331 54.4892 19.2351 53.428 19.2351C52.7434 19.2351 52.14 19.4149 51.618 19.7743C51.0959 20.1252 50.6937 20.6472 50.4113 21.3404C50.1289 22.0336 49.9877 22.8424 49.9877 23.7666C49.9877 24.6823 50.1246 25.4825 50.3985 26.1672C50.6809 26.8518 51.0788 27.3781 51.5923 27.7461C52.1144 28.1056 52.7263 28.2853 53.428 28.2853C54.4892 28.2853 55.3322 27.8873 55.9569 27.0914C56.5902 26.287 56.9069 25.1787 56.9069 23.7666Z" fill="black"/>
<path d="M71.9263 29.2866L68.8325 24.2031L66.9326 26.0003V28.7859C66.9326 29.462 66.7529 29.9841 66.3935 30.3521C66.0426 30.7115 65.6361 30.8912 65.174 30.8912C64.6348 30.8912 64.2112 30.7115 63.9031 30.3521C63.595 29.9926 63.441 29.462 63.441 28.7603V13.8179C63.441 13.0391 63.5907 12.4486 63.8903 12.0464C64.1898 11.6356 64.6177 11.4302 65.174 11.4302C65.7131 11.4302 66.141 11.6142 66.4577 11.9822C66.7743 12.3502 66.9326 12.8936 66.9326 13.6125V22.1106L70.8736 17.9771C71.3615 17.4636 71.7337 17.1127 71.9905 16.9245C72.2472 16.7362 72.5596 16.642 72.9276 16.642C73.364 16.642 73.7278 16.7832 74.0187 17.0657C74.3097 17.3395 74.4552 17.6861 74.4552 18.1055C74.4552 18.619 73.9802 19.3036 73.0303 20.1594L71.1689 21.8667L74.7633 27.5151C75.0286 27.9344 75.2169 28.2553 75.3281 28.4778C75.4479 28.6918 75.5078 28.8972 75.5078 29.094C75.5078 29.6503 75.3538 30.091 75.0457 30.4163C74.7462 30.7329 74.3482 30.8912 73.8518 30.8912C73.4239 30.8912 73.0945 30.7757 72.8634 30.5446C72.6323 30.3136 72.32 29.8942 71.9263 29.2866Z" fill="black"/>
<path d="M80.8352 31.3277L81.1562 30.5446L76.8429 19.6844C76.5776 19.0597 76.4449 18.6061 76.4449 18.3237C76.4449 18.0242 76.522 17.746 76.676 17.4893C76.8301 17.2325 77.0397 17.0272 77.305 16.8731C77.5789 16.7191 77.8613 16.642 78.1523 16.642C78.6572 16.642 79.038 16.8046 79.2948 17.1298C79.5515 17.4465 79.7783 17.9044 79.9751 18.5034L82.9405 27.13L85.7518 19.1068C85.9743 18.4564 86.1755 17.9471 86.3552 17.5791C86.5349 17.2112 86.7232 16.963 86.92 16.8346C87.1254 16.7062 87.4121 16.642 87.7801 16.642C88.0454 16.642 88.2979 16.7148 88.5375 16.8603C88.7857 16.9972 88.974 17.1855 89.1023 17.4251C89.2393 17.6647 89.3077 17.9172 89.3077 18.1825C89.2735 18.3451 89.2179 18.5762 89.1408 18.8757C89.0638 19.1752 88.9697 19.479 88.8584 19.7871L84.2884 31.7513C83.8947 32.804 83.5096 33.6298 83.1331 34.2289C82.7565 34.8279 82.2559 35.2858 81.6311 35.6024C81.015 35.9276 80.1805 36.0903 79.1279 36.0903C78.1009 36.0903 77.3307 35.979 76.8172 35.7565C76.3037 35.534 76.047 35.1275 76.047 34.537C76.047 34.1347 76.1668 33.8224 76.4064 33.5999C76.6546 33.3859 77.0183 33.2789 77.4976 33.2789C77.6859 33.2789 77.8699 33.3046 78.0496 33.3559C78.2721 33.4073 78.4646 33.433 78.6273 33.433C79.0295 33.433 79.3461 33.3731 79.5772 33.2533C79.8083 33.1334 80.0137 32.9238 80.1934 32.6242C80.3817 32.3333 80.5956 31.9011 80.8352 31.3277Z" fill="black"/>
<path d="M129.657 0H99.742C97.4365 0 95.5247 1.89317 95.5247 4.17611V18.0965V20.8249V30.7083L101.345 25.001H129.685C131.991 25.001 133.903 23.1078 133.903 20.8249V4.17611C133.874 1.86533 131.991 0 129.657 0Z" fill="#09C269"/>
<path d="M124.146 9.68836C127.352 9.68836 128.814 12.2219 128.814 14.5605C128.814 15.2008 128.336 15.6463 127.689 15.6463H121.785C122.066 17.0662 123.078 17.8179 124.681 17.8179C125.833 17.8179 126.48 17.5673 127.042 17.2889C127.183 17.2054 127.324 17.1775 127.492 17.1775C128.055 17.1775 128.504 17.623 128.504 18.1798C128.504 18.5417 128.279 18.8758 127.886 19.0985C127.099 19.544 126.255 19.9337 124.512 19.9337C121.363 19.9337 119.451 18.0127 119.451 14.8111C119.451 11.0526 121.982 9.68836 124.146 9.68836ZM114.756 8.04576C115.121 8.04576 115.374 8.32416 115.374 8.68609V9.8554H117.174C117.736 9.8554 118.186 10.3009 118.186 10.8577C118.186 11.4145 117.736 11.8599 117.174 11.8599H115.402V17.094C115.402 17.8457 115.796 17.9014 116.33 17.9014C116.64 17.9014 116.808 17.8457 116.977 17.8179C117.118 17.79 117.258 17.7343 117.427 17.7343C117.877 17.7343 118.383 18.0963 118.383 18.6809C118.355 19.0428 118.158 19.3769 117.792 19.544C117.258 19.7945 116.724 19.9059 116.133 19.9059C114.194 19.9059 113.153 18.9872 113.153 17.2332V11.8599H112.141C111.776 11.8599 111.523 11.5815 111.523 11.2474C111.523 11.0526 111.607 10.8577 111.776 10.7185L114.25 8.29632C114.306 8.24064 114.503 8.04576 114.756 8.04576ZM103.369 5.76282C103.988 5.76282 104.494 6.26395 104.494 6.87645V18.7088C104.494 19.3213 103.988 19.7945 103.369 19.7945C102.75 19.7945 102.272 19.2934 102.272 18.7088V6.87645C102.272 6.26395 102.75 5.76282 103.369 5.76282ZM108.598 9.77188C109.217 9.77188 109.723 10.273 109.723 10.8855V18.7088C109.723 19.3213 109.217 19.7945 108.598 19.7945C107.98 19.7945 107.502 19.2934 107.502 18.7088V10.8855C107.502 10.273 107.98 9.77188 108.598 9.77188ZM124.175 11.6651C123.106 11.6651 121.982 12.3054 121.785 13.7809H126.593C126.368 12.3054 125.243 11.6651 124.175 11.6651ZM108.655 6.04122C109.329 6.04122 109.864 6.5702 109.864 7.23838V7.3219C109.864 7.99008 109.329 8.51905 108.655 8.51905H108.542C107.867 8.51905 107.333 7.99008 107.333 7.3219V7.23838C107.333 6.5702 107.867 6.04122 108.542 6.04122H108.655Z" fill="white"/>
</svg>
